# File created by Blade
# Date/Time:  Tue Jan 27 19:18:50 2015
#---------------------------------------------------------
:version 1.10
:name HOM
:units
  mass 1.0
  length 1.000000
  angle deg
:documentation
     Acclaim Skeleton File
:root
   axis xyz
   order TX TY TZ RX RY RZ
   position 0.000000 0.000000 0.000000
   orientation 0 0 0
:bonedata
   begin
      id 1
      name Spine_dum
      direction 0.000000 1.000000 0.000000
      length 6.116652
      axis 0.0 0.0 0.0 xyz
   end
   begin
      id 2
      name LeftUpLeg_dum
      direction 1.000000 0.000000 0.000000
      length 4.711765
      axis 0.0 0.0 0.0 xyz
   end
   begin
      id 3
      name RightUpLeg_dum
      direction -1.000000 0.000000 0.000000
      length 4.711765
      axis 0.0 0.0 0.0 xyz
   end
   begin
      id 4
      name Spine
      direction 0.000000 1.000000 0.000000
      length 0.000000
      axis 0.0 0.0 0.0 xyz
      dof rx ry rz
   end
   begin
      id 5
      name Spine_dum1
      direction 0.000000 1.000000 0.000000
      length 15.225563
      axis 0.0 0.0 0.0 xyz
   end
   begin
      id 6
      name Spine_dum2
      direction 0.000000 1.000000 0.000000
      length 8.977654
      axis 0.0 0.0 0.0 xyz
   end
   begin
      id 7
      name Spine_dum3
      direction 0.000000 1.000000 0.000000
      length 8.977654
      axis 0.0 0.0 0.0 xyz
   end
   begin
      id 8
      name Head
      direction 0.000000 1.000000 0.000000
      length 4.527550
      axis 0.0 0.0 0.0 xyz
      dof rx ry rz
   end
   begin
      id 9
      name LeftShoulder
      direction 1.000000 0.000000 0.000000
      length 7.110130
      axis 0.0 0.0 -90.0 xyz
      dof rx ry rz
   end
   begin
      id 10
      name LeftArm
      direction 1.000000 0.000000 0.000000
      length 10.398341
      axis 0.0 0.0 -90.0 xyz
      dof rx ry rz
   end
   begin
      id 11
      name LeftForeArm
      direction 1.000000 0.000000 0.000000
      length 8.888997
      axis 0.0 0.0 -90.0 xyz
      dof ry rz rx
   end
   begin
      id 12
      name LeftHand
      direction 0.000000 0.000000 0.000000
      length 0.000000
      axis 0.0 0.0 -90.0 xyz
      dof rx ry rz
   end
   begin
      id 13
      name LeftHand_dum1
      direction 0.000000 0.000000 0.000000
      length 0.000000
      axis 0.0 0.0 -90.0 xyz
   end
   begin
      id 14
      name LeftHand_dum2
      direction 1.000000 0.000000 0.000000
      length 3.937000
      axis 0.0 0.0 -90.0 xyz
   end
   begin
      id 15
      name LeftHandThumb1
      direction 0.000000 0.000000 1.000000
      length 3.937000
      axis 0.0 0.0 -90.0 xyz
      dof rx rz ry
   end
   begin
      id 16
      name RightShoulder
      direction -1.000000 0.000000 0.000000
      length 7.110130
      axis 0.0 0.0 90.0 xyz
      dof rx ry rz
   end
   begin
      id 17
      name RightArm
      direction -1.000000 0.000000 0.000000
      length 10.398341
      axis 0.0 0.0 90.0 xyz
      dof rx ry rz
   end
   begin
      id 18
      name RightForeArm
      direction -1.000000 0.000000 0.000000
      length 8.888997
      axis 0.0 0.0 90.0 xyz
      dof ry rz rx
   end
   begin
      id 19
      name RightHand
      direction 0.000000 0.000000 0.000000
      length 0.000000
      axis 0.0 0.0 90.0 xyz
      dof rx ry rz
   end
   begin
      id 20
      name RightHand_dum1
      direction 0.000000 0.000000 0.000000
      length 0.000000
      axis 0.0 0.0 90.0 xyz
   end
   begin
      id 21
      name RightHand_dum2
      direction -1.000000 0.000000 0.000000
      length 3.937000
      axis 0.0 0.0 90.0 xyz
   end
   begin
      id 22
      name RightHandThumb1
      direction 0.000000 0.000000 1.000000
      length 3.937000
      axis 0.0 0.0 90.0 xyz
      dof rx rz ry
   end
   begin
      id 23
      name LeftUpLeg
      direction 0.000000 -1.000000 0.000000
      length 15.510451
      axis 0.0 0.0 0.0 xyz
      dof rx ry rz
   end
   begin
      id 24
      name LeftLeg
      direction 0.000000 -1.000000 0.000000
      length 14.858061
      axis 0.0 0.0 0.0 xyz
      dof rx ry rz
   end
   begin
      id 25
      name LeftFoot
      direction 0.000000 -0.258819 0.965926
      length 5.128852
      axis 15.0 0.0 0.0 xyz
      dof rx ry rz
   end
   begin
      id 26
      name LeftToeBase
      direction 0.000000 0.000000 1.000000
      length 2.952750
      axis 0.0 0.0 0.0 xyz
      dof rx ry rz
   end
   begin
      id 27
      name RightUpLeg
      direction 0.000000 -1.000000 0.000000
      length 15.510451
      axis 0.0 0.0 0.0 xyz
      dof rx ry rz
   end
   begin
      id 28
      name RightLeg
      direction 0.000000 -1.000000 0.000000
      length 14.858061
      axis 0.0 0.0 0.0 xyz
      dof rx ry rz
   end
   begin
      id 29
      name RightFoot
      direction 0.000000 -0.258819 0.965926
      length 5.128852
      axis 15.0 0.0 0.0 xyz
      dof rx ry rz
   end
   begin
      id 30
      name RightToeBase
      direction 0.000000 0.000000 1.000000
      length 2.952750
      axis 0.0 0.0 0.0 xyz
      dof rx ry rz
   end
:hierarchy
   begin
      root Spine_dum LeftUpLeg_dum RightUpLeg_dum
      Spine_dum Spine
      LeftUpLeg_dum LeftUpLeg
      RightUpLeg_dum RightUpLeg
      Spine Spine_dum1 Spine_dum2 Spine_dum3
      Spine_dum1 Head
      Spine_dum2 LeftShoulder
      Spine_dum3 RightShoulder
      LeftShoulder LeftArm
      LeftArm LeftForeArm
      LeftForeArm LeftHand
      LeftHand LeftHand_dum1 LeftHand_dum2
      LeftHand_dum1 LeftHandThumb1
      RightShoulder RightArm
      RightArm RightForeArm
      RightForeArm RightHand
      RightHand RightHand_dum1 RightHand_dum2
      RightHand_dum1 RightHandThumb1
      LeftUpLeg LeftLeg
      LeftLeg LeftFoot
      LeftFoot LeftToeBase
      RightUpLeg RightLeg
      RightLeg RightFoot
      RightFoot RightToeBase
   end

# File created by Blade
# Date/Time:  Tue Jan 27 19:18:41 2015
# Frame Rate: 120.000 fps
#------------------------------------------------------
:FULLY-SPECIFIED
:DEGREES
1428
root 3.946035 32.368824 0.941272 -3.567530 2.708702 0.855464
Spine 0.636496 17.311334 0.786386
Head -0.574280 -22.611018 -10.531369
LeftShoulder -4.514878 -7.865514 20.122551
LeftArm -3.317055 41.268928 -98.869431
LeftForeArm 3.382935 -0.000000 14.973925
LeftHand 11.093700 -0.000000 -4.443741
LeftHandThumb1 -26.253704 0.000000 33.147579
RightShoulder 3.243569 12.548690 -47.443058
RightArm 38.443280 6.610844 26.213034
RightForeArm 24.426125 0.000000 110.608734
RightHand 31.477716 -0.000000 -28.991188
RightHandThumb1 -24.326973 -0.000000 -32.862282
LeftUpLeg 9.284667 -2.293510 -1.189288
LeftLeg 3.252515 -0.000000 -0.000000
LeftFoot -17.628267 13.092864 -23.070818
LeftToeBase 16.610138 -0.000000 -0.000000
RightUpLeg 9.545059 -9.625338 0.697150
RightLeg 0.181481 -0.000000 -0.000000
RightFoot -12.505449 -14.676932 13.793395
RightToeBase 9.983116 -0.000000 -0.000000
1429
root 3.937514 32.371292 0.935711 -3.548329 2.762597 0.867128
Spine 0.575963 17.239550 0.676065
Head -0.495129 -22.798577 -10.348056
LeftShoulder -4.568452 -7.839430 20.065057
LeftArm -3.280467 41.118391 -98.763089
LeftForeArm 3.428191 -0.000000 14.911146
LeftHand 11.050599 -0.000000 -4.769174
LeftHandThumb1 -26.253704 0.000000 33.147579
RightShoulder 3.286092 12.173795 -47.868822
RightArm 38.979498 4.738868 24.430768
RightForeArm 24.730990 -0.000000 110.570742
RightHand 31.752953 0.000000 -28.533609
RightHandThumb1 -24.326973 -0.000000 -32.862282
LeftUpLeg 9.241564 -2.363958 -1.190386
LeftLeg 3.263517 -0.000000 -0.000000
LeftFoot -17.596887 13.118448 -23.070266
LeftToeBase 16.671977 -0.000000 -0.000000
RightUpLeg 9.529451 -9.695112 0.703972
RightLeg 0.165816 -0.000000 -0.000000
RightFoot -12.475591 -14.704300 13.735585
RightToeBase 9.907467 -0.000000 -0.000000
1430
root 3.928794 32.371791 0.932871 -3.565760 2.791441 0.874718
Spine 0.532098 17.215606 0.549729
Head -0.358263 -23.014596 -10.105816
LeftShoulder -4.591666 -7.858568 20.032433
LeftArm -3.273559 40.873188 -98.693784
LeftForeArm 3.637759 -0.000000 14.801920
LeftHand 10.973409 -0.000000 -5.088072
LeftHandThumb1 -26.253704 0.000000 33.147579
RightShoulder 3.311985 10.131800 -48.052180
RightArm 40.279059 4.732766 22.630194
RightForeArm 24.763453 -0.000000 110.480851
RightHand 31.994887 -0.000000 -28.527175
RightHandThumb1 -24.326973 -0.000000 -32.862282
LeftUpLeg 9.233179 -2.394592 -1.181802
LeftLeg 3.297992 -0.000000 -0.000000
LeftFoot -17.605890 13.093539 -23.129142
LeftToeBase 16.667165 -0.000000 -0.000000
RightUpLeg 9.543251 -9.703175 0.710480
RightLeg 0.171012 -0.000000 -0.000000
RightFoot -12.491361 -14.723331 13.726773
RightToeBase 9.979238 -0.000000 -0.000000
1431
root 3.915819 32.371829 0.925952 -3.559254 2.845113 0.873910
Spine 0.480058 17.175947 0.399442
Head -0.273592 -23.292580 -9.822862
LeftShoulder -4.704559 -7.723118 19.989383
LeftArm -2.984853 40.781150 -98.449740
LeftForeArm 3.766156 -0.000000 14.641906
LeftHand 10.932414 0.000000 -5.109137
LeftHandThumb1 -26.253704 0.000000 33.147579
RightShoulder 3.406549 8.119407 -48.164543
RightArm 41.353635 5.061862 21.161983
RightForeArm 24.421189 -0.000000 110.519079
RightHand 32.278762 -0.000000 -28.145494
RightHandThumb1 -24.326973 -0.000000 -32.862282
LeftUpLeg 9.199442 -2.426825 -1.156534
LeftLeg 3.305737 -0.000000 -0.000000
LeftFoot -17.578575 13.082800 -23.115858
LeftToeBase 16.656111 -0.000000 -0.000000
RightUpLeg 9.520748 -9.692912 0.740960
RightLeg 0.190500 -0.000000 -0.000000
RightFoot -12.526411 -14.752124 13.797198
RightToeBase 10.018113 -0.000000 -0.000000
1432
root 3.902318 32.371637 0.917942 -3.556421 2.904779 0.874973
Spine 0.434298 17.169312 0.212030
Head -0.203570 -23.640234 -9.461334
LeftShoulder -4.770784 -7.722383 19.926612
LeftArm -2.861821 40.615280 -98.280404
LeftForeArm 3.815246 -0.000000 14.497113
LeftHand 11.079515 0.000000 -4.590162
LeftHandThumb1 -26.253704 0.000000 33.147579
RightShoulder 3.517369 6.269908 -48.147837
RightArm 42.197845 5.539544 19.995747
RightForeArm 23.728975 -0.000000 110.617956
RightHand 32.718054 0.000000 -28.102178
RightHandThumb1 -24.326973 -0.000000 -32.862282
LeftUpLeg 9.164820 -2.478413 -1.134563
LeftLeg 3.321859 -0.000000 -0.000000
LeftFoot -17.579670 13.065119 -23.140968
LeftToeBase 16.625233 -0.000000 -0.000000
RightUpLeg 9.486006 -9.712882 0.774248
RightLeg 0.232912 -0.000000 -0.000000
RightFoot -12.556651 -14.828213 13.753222
RightToeBase 10.057566 -0.000000 -0.000000
1433
root 3.887393 32.371397 0.910987 -3.564086 2.957940 0.867215
Spine 0.414491 17.228431 0.025279
Head -0.189211 -24.049086 -9.068505
LeftShoulder -4.822243 -7.750618 19.847504
LeftArm -2.739647 40.450049 -98.096838
LeftForeArm 4.034557 -0.000000 14.382870
LeftHand 10.901470 -0.000000 -4.931519
LeftHandThumb1 -26.253704 0.000000 33.147579
RightShoulder 3.646596 4.716300 -48.032252
RightArm 42.715600 5.962988 19.137535
RightForeArm 22.464827 -0.000000 111.064096
RightHand 31.870988 -0.000000 -28.309068
RightHandThumb1 -24.326973 -0.000000 -32.862282
LeftUpLeg 9.139856 -2.622824 -1.119326
LeftLeg 3.349610 -0.000000 -0.000000
LeftFoot -17.618985 13.138047 -23.180943
LeftToeBase 16.634949 -0.000000 -0.000000
RightUpLeg 9.455566 -9.675422 0.823016
RightLeg 0.289122 -0.000000 -0.000000
RightFoot -12.585916 -14.922501 13.752575
RightToeBase 9.989655 -0.000000 -0.000000
1434
root 3.876037 32.370675 0.906572 -3.602276 3.006098 0.845664
Spine 0.437522 17.312130 -0.104391
Head -0.204824 -24.569155 -8.722360
LeftShoulder -4.908273 -7.938317 19.725428
LeftArm -2.806363 40.292915 -98.011490
LeftForeArm 4.129712 -0.000000 14.279767
LeftHand 10.890187 -0.000000 -5.030402
LeftHandThumb1 -26.253704 0.000000 33.147579
RightShoulder 3.752850 3.554627 -47.880984
RightArm 43.084125 6.275441 18.638549
RightForeArm 21.502704 0.000000 111.308402
RightHand 32.091920 -0.000000 -28.168143
RightHandThumb1 -24.326973 -0.000000 -32.862282
LeftUpLeg 9.150091 -2.541662 -1.057381
LeftLeg 3.367010 -0.000000 -0.000000
LeftFoot -17.590683 13.012641 -23.155008
LeftToeBase 16.626572 -0.000000 -0.000000
RightUpLeg 9.479009 -9.715158 0.864584
RightLeg 0.307137 -0.000000 -0.000000
RightFoot -12.580449 -14.976967 13.709740
RightToeBase 9.952709 -0.000000 -0.000000
1435
root 3.858534 32.368846 0.902233 -3.641587 3.049829 0.810086
Spine 0.490235 17.440052 -0.265079
Head -0.310610 -25.004096 -8.300291
LeftShoulder -4.937773 -7.906091 19.623419
LeftArm -2.576230 40.140531 -97.740613
LeftForeArm 4.089364 -0.000000 14.202958
LeftHand 11.030545 0.000000 -4.449612
LeftHandThumb1 -26.253704 0.000000 33.147579
RightShoulder 3.791032 3.033798 -47.637951
RightArm 43.176221 6.155289 18.472305
RightForeArm 20.833684 0.000000 111.542042
RightHand 32.409153 -0.000000 -28.022941
RightHandThumb1 -24.326973 -0.000000 -32.862282
LeftUpLeg 9.162261 -2.546471 -0.985111
LeftLeg 3.387083 -0.000000 -0.000000
LeftFoot -17.608810 12.951294 -23.158258
LeftToeBase 16.661993 -0.000000 -0.000000
RightUpLeg 9.505315 -9.691318 0.925242
RightLeg 0.327149 -0.000000 -0.000000
RightFoot -12.600949 -14.996063 13.754304
RightToeBase 9.982105 -0.000000 -0.000000
1436
root 3.852753 32.365812 0.900934 -3.707344 3.085184 0.816396
Spine 0.581915 17.644173 -0.405590
Head -0.388881 -25.446855 -8.027472
LeftShoulder -5.005800 -8.045306 19.508704
LeftArm -2.516430 40.083757 -97.614647
LeftForeArm 4.136239 -0.000000 14.105471
LeftHand 10.912604 -0.000000 -4.658112
LeftHandThumb1 -26.253704 0.000000 33.147579
RightShoulder 3.769285 2.693395 -47.376823
RightArm 43.200275 5.980224 18.487902
RightForeArm 20.490074 -0.000000 111.757733
RightHand 32.353705 0.000000 -28.038548
RightHandThumb1 -24.326973 -0.000000 -32.862282
LeftUpLeg 9.210690 -2.494565 -0.970186
LeftLeg 3.405399 -0.000000 -0.000000
LeftFoot -17.601413 12.864959 -23.147140
LeftToeBase 16.628919 -0.000000 -0.000000
RightUpLeg 9.547263 -9.765275 0.908192
RightLeg 0.383473 -0.000000 -0.000000
RightFoot -12.647444 -14.946121 13.736699
RightToeBase 9.922015 -0.000000 -0.000000
1437
root 3.837003 32.362747 0.891684 -3.718565 3.168276 0.796033
Spine 0.626261 17.780125 -0.559928
Head -0.466431 -25.854179 -7.768023
LeftShoulder -5.008851 -8.118524 19.412519
LeftArm -2.439063 39.911312 -97.449002
LeftForeArm 4.098109 -0.000000 14.109451
LeftHand 10.975011 -0.000000 -4.572990
LeftHandThumb1 -26.253704 0.000000 33.147579
RightShoulder 3.708894 2.503915 -47.073179
RightArm 43.253827 5.828474 18.684124
RightForeArm 20.463960 -0.000000 111.868859
RightHand 32.401030 -0.000000 -28.036767
RightHandThumb1 -24.326973 -0.000000 -32.862282
LeftUpLeg 9.203311 -2.612605 -0.939327
LeftLeg 3.392883 -0.000000 -0.000000
LeftFoot -17.654557 12.903988 -23.164721
LeftToeBase 16.575312 -0.000000 -0.000000
RightUpLeg 9.522085 -9.803660 0.958760
RightLeg 0.438765 -0.000000 -0.000000
RightFoot -12.699343 -14.984412 13.740899
RightToeBase 9.942946 -0.000000 -0.000000
